# xmcd CD database file
#
# Track frame offsets:
#	150
#	19684
#	40711
#	54346
#	72230
#	85469
#	100667
#	115896
#	131441
#	144098
#	160495
#	172946
#	190857
#
# Disc length: 2756 seconds
#
# Revision: 0
# Processed by: cddbd v1.5.2PL0 Copyright (c) Steve Scherf et al.
# Submitted via: CDex 1.51
#
DISCID=a10ac20d
DTITLE=Norah Jones - Not Too Late
DYEAR=2007
DGENRE=Blues
TTITLE0=Norah Jones - Wish I Could
TTITLE1=Norah Jones - Sinkin' Soon
TTITLE2=Norah Jones - The Sun Doesn't Like You
TTITLE3=Norah Jones - Until The End
TTITLE4=Norah Jones - Not My Friend
TTITLE5=Norah Jones - Thinking About You
TTITLE6=Norah Jones - Broken
TTITLE7=Norah Jones - My Dear Country
TTITLE8=Norah Jones - Wake Me Up
TTITLE9=Norah Jones - Be My Somebody
TTITLE10=Norah Jones - Little Moon
TTITLE11=Norah Jones - Rosie's Lullaby
TTITLE12=Norah Jones - Not Too Late
EXTD=YEAR: 2007
EXTT0=
EXTT1=
EXTT2=
EXTT3=
EXTT4=
EXTT5=
EXTT6=
EXTT7=
EXTT8=
EXTT9=
EXTT10=
EXTT11=
EXTT12=
PLAYORDER=
